<svg width="83" height="46" viewBox="0 0 83 46" fill="none" xmlns="http://www.w3.org/2000/svg">
<path d="M8.85728 26.8767C2.26163 14.0006 3.59643 8.39497 3.59643 8.39497C3.59643 8.39497 19.2089 8.96816 25.3446 12.8817C31.4802 16.7953 25.1355 27.094 25.1355 27.094C25.1355 27.094 15.4529 39.7528 8.85728 26.8767Z" fill="#B7D968"/>
<path d="M3.59643 8.39497C3.59643 8.39497 2.26163 14.0006 8.85729 26.8767C15.4529 39.7528 25.1355 27.094 25.1355 27.094M3.59643 8.39497C3.59643 8.39497 19.2089 8.96816 25.3446 12.8817C31.4802 16.7953 25.1355 27.094 25.1355 27.094M3.59643 8.39497L11.1864 14.9842M31.0843 32.2585L25.1355 27.094M25.1355 27.094L20.3041 22.8997M20.3041 22.8997L12.6901 25.403M20.3041 22.8997L15.6993 18.9021M15.6993 18.9021L15.2251 13.4003M15.6993 18.9021L11.1864 14.9842M11.1864 14.9842L6.8415 15.0051" stroke="#4F463D"/>
<path d="M32.0198 36.2188C31.3792 36.7812 30.4729 37.2891 29.301 37.7422C28.1292 38.1953 26.7151 38.4219 25.0588 38.4219C24.1838 38.4219 23.3401 38.3281 22.5276 38.1406C21.7151 37.9531 20.9963 37.6719 20.3713 37.2969C19.7463 36.9062 19.2463 36.4141 18.8713 35.8203C18.512 35.2266 18.3323 34.5312 18.3323 33.7344V9.92188C18.3323 8.48438 21.8557 7.76562 28.9026 7.76562H42.6604C42.8635 8.125 43.051 8.53906 43.2229 9.00781C43.3948 9.47656 43.5354 9.96094 43.6448 10.4609C43.7542 10.9453 43.8401 11.4375 43.9026 11.9375C43.9651 12.4219 43.9963 12.875 43.9963 13.2969C43.9963 15.0469 43.6213 16.3828 42.8713 17.3047C42.1213 18.2109 40.926 18.6641 39.2854 18.6641H31.176C30.8635 18.6641 30.637 18.7344 30.4963 18.875C30.3557 19.0156 30.2854 19.1953 30.2854 19.4141C30.2854 19.4453 30.2854 19.5078 30.2854 19.6016C30.2854 19.6797 30.301 19.7344 30.3323 19.7656H40.6917C41.0198 20.3281 41.301 21.0156 41.5354 21.8281C41.7698 22.6406 41.887 23.4844 41.887 24.3594C41.887 25.6094 41.7307 26.6484 41.4182 27.4766C41.1213 28.2891 40.801 28.9062 40.4573 29.3281H28.9729C28.8479 29.4531 28.7854 29.5938 28.7854 29.75C28.7854 29.8906 28.8323 30 28.926 30.0781C29.0354 30.1406 29.2073 30.1875 29.4417 30.2188C29.6917 30.25 30.0198 30.2656 30.426 30.2656C30.8479 30.2656 31.3792 30.2734 32.0198 30.2891V36.2188Z" fill="#578C3E"/>
<path d="M62.7542 32.0469C63.301 31.9219 63.8948 31.6641 64.5354 31.2734C65.176 30.8828 65.7932 30.25 66.387 29.375C66.6526 28.9688 66.7854 28.6172 66.7854 28.3203C66.7854 27.9141 66.5823 27.7109 66.176 27.7109C66.1448 27.7109 66.1135 27.7188 66.0823 27.7344C66.0667 27.7344 66.0432 27.7344 66.012 27.7344C64.9026 30.0312 63.1292 31.1797 60.6917 31.1797C60.0823 31.1797 59.512 31.1172 58.9807 30.9922C58.4651 30.8672 57.9807 30.6641 57.5276 30.3828C57.0745 30.1016 56.6448 29.7266 56.2385 29.2578C55.8323 28.7891 55.4417 28.2109 55.0667 27.5234H54.926C54.7542 27.5234 54.6057 27.5625 54.4807 27.6406C54.3557 27.7188 54.2932 27.8594 54.2932 28.0625C54.2932 28.3281 54.387 28.6094 54.5745 28.9062C54.9182 29.4688 55.2854 29.9531 55.676 30.3594C56.0823 30.7656 56.4885 31.1094 56.8948 31.3906C57.3167 31.6562 57.7307 31.8594 58.137 32C58.5432 32.1406 58.9104 32.2266 59.2385 32.2578L59.051 36.6875C58.6448 36.9531 58.2151 37.1953 57.762 37.4141C57.3245 37.6328 56.8245 37.8203 56.262 37.9766C55.6995 38.1172 55.0588 38.2266 54.3401 38.3047C53.637 38.3828 52.8245 38.4219 51.9026 38.4219C51.0276 38.4219 50.1135 38.3359 49.1604 38.1641C48.2073 37.9922 47.3323 37.7109 46.5354 37.3203C45.7385 36.9141 45.0745 36.3984 44.5432 35.7734C44.0276 35.1484 43.7698 34.375 43.7698 33.4531C43.7698 32.9688 43.7932 32.3125 43.8401 31.4844C43.887 30.6406 43.9495 29.6875 44.0276 28.625C44.1213 27.5625 44.2229 26.4141 44.3323 25.1797C44.4417 23.9453 44.5588 22.7031 44.6838 21.4531C44.8088 20.1875 44.9338 18.9375 45.0588 17.7031C45.1838 16.4688 45.3088 15.3203 45.4338 14.2578C45.5588 13.1953 45.6682 12.25 45.762 11.4219C45.8713 10.5938 45.9651 9.94531 46.0432 9.47656C46.4963 9.07031 47.012 8.72656 47.5901 8.44531C48.1682 8.16406 48.7698 7.94531 49.3948 7.78906C50.0354 7.61719 50.676 7.5 51.3167 7.4375C51.9573 7.35938 52.5745 7.32031 53.1682 7.32031C54.2307 7.32031 55.2698 7.4375 56.2854 7.67188C57.3167 7.90625 58.1682 8.21094 58.8401 8.58594L60.1292 12.8984L59.3088 16.3438C59.2776 16.4688 59.2542 16.5859 59.2385 16.6953C59.2229 16.8047 59.2151 16.9141 59.2151 17.0234C59.2151 17.5547 59.5276 17.8359 60.1526 17.8672L62.3792 8.60938C62.6448 8.46875 62.9807 8.32031 63.387 8.16406C63.8088 8.00781 64.2698 7.86719 64.7698 7.74219C65.2854 7.61719 65.8401 7.51562 66.4338 7.4375C67.0276 7.35938 67.637 7.32031 68.262 7.32031C69.3713 7.32031 70.3401 7.41406 71.1682 7.60156C72.012 7.77344 72.7151 8.0625 73.2776 8.46875C73.8557 8.85938 74.3088 9.375 74.637 10.0156C74.9651 10.6562 75.1838 11.4453 75.2932 12.3828C75.4026 13.3672 75.5354 14.5547 75.6917 15.9453C75.8635 17.3359 76.0354 18.8125 76.2073 20.375C76.3792 21.9219 76.551 23.4922 76.7229 25.0859C76.8948 26.6797 77.0432 28.1797 77.1682 29.5859C77.3088 30.9766 77.4182 32.2109 77.4963 33.2891C77.5901 34.3672 77.637 35.1641 77.637 35.6797C75.9026 37.5078 73.4026 38.4219 70.137 38.4219C69.1057 38.4219 68.1604 38.3359 67.301 38.1641C66.4417 37.9922 65.6995 37.7344 65.0745 37.3906C64.4651 37.0312 63.9729 36.5938 63.5979 36.0781C63.2385 35.5625 63.0276 34.9531 62.9651 34.25L62.7542 32.0469Z" fill="#4F463D"/>
</svg>
