<svg width="83" height="38" viewBox="0 0 83 38" fill="none" xmlns="http://www.w3.org/2000/svg">
<path d="M8.85726 22.2025C2.26161 11.5657 3.59641 6.93497 3.59641 6.93497C3.59641 6.93497 19.2089 7.40848 25.3446 10.6414C31.4802 13.8744 25.1355 22.382 25.1355 22.382C25.1355 22.382 15.4529 32.8393 8.85726 22.2025Z" fill="#B7D968"/>
<path d="M3.10038 7C3.10038 7 1.89126 12.5453 7.86588 25.2827C13.8404 38.0201 22.6113 25.4976 22.6113 25.4976M3.10038 7C3.10038 7 17.2428 7.56702 22.8007 11.4384C28.3586 15.3098 22.6113 25.4976 22.6113 25.4976M3.10038 7L9.97568 13.5183M22.6113 25.4976L28 30.6065M22.6113 25.4976L18.2349 21.3485M9.97568 13.5183L14.0636 17.394M9.97568 13.5183L6.03989 13.5389M18.2349 21.3485L11.3378 23.8248M18.2349 21.3485L14.0636 17.394M14.0636 17.394L13.6341 11.9514" stroke="#4F463D"/>
<path d="M31.8667 33.8441C31.2177 34.3944 30.2995 34.8914 29.1123 35.3348C27.9252 35.7783 26.4925 36 24.8146 36C23.9281 36 23.0734 35.9082 22.2502 35.7247C21.4271 35.5412 20.6989 35.2661 20.0657 34.8991C19.4325 34.5167 18.926 34.0352 18.5461 33.4541C18.1821 32.8731 18 32.1926 18 31.4128V8.1101C18 6.70337 21.5695 6 28.7087 6H42.6466C42.8524 6.35169 43.0423 6.75688 43.2165 7.2156C43.3906 7.67431 43.5331 8.14832 43.6439 8.63758C43.7547 9.11161 43.8418 9.59327 43.9051 10.0826C43.9684 10.5566 44 11 44 11.4129C44 13.1254 43.6201 14.4327 42.8603 15.3349C42.1005 16.2217 40.8895 16.6652 39.2274 16.6652H31.0119C30.6953 16.6652 30.4658 16.734 30.3233 16.8716C30.1808 17.0091 30.1096 17.185 30.1096 17.3991C30.1096 17.4296 30.1096 17.4908 30.1096 17.5826C30.1096 17.659 30.1254 17.7126 30.1571 17.7431H40.6521C40.9845 18.2935 41.2694 18.9663 41.5069 19.7614C41.7444 20.5565 41.8631 21.3823 41.8631 22.2385C41.8631 23.4618 41.7047 24.4785 41.3881 25.289C41.0874 26.0841 40.7629 26.688 40.4147 27.1009H28.7799C28.6533 27.2232 28.59 27.3609 28.59 27.5137C28.59 27.6513 28.6375 27.7584 28.7324 27.8348C28.8432 27.896 29.0174 27.9419 29.2548 27.9725C29.5081 28.003 29.8405 28.0183 30.252 28.0183C30.6795 28.0183 31.2177 28.0259 31.8667 28.0413V33.8441Z" fill="#578C3E"/>
<path d="M63.0588 31.4409C63.6078 31.3122 64.2039 31.047 64.847 30.645C65.4901 30.2431 66.1098 29.592 66.7059 28.6918C66.9725 28.2738 67.1058 27.9121 67.1058 27.6066C67.1058 27.1887 66.902 26.9796 66.4941 26.9796C66.4627 26.9796 66.4313 26.9877 66.4 27.0038C66.3843 27.0038 66.3607 27.0038 66.3294 27.0038C65.2157 29.3669 63.4353 30.5486 60.9883 30.5486C60.3765 30.5486 59.8039 30.4843 59.2705 30.3557C58.7529 30.2271 58.2666 30.0181 57.8117 29.7287C57.3569 29.4394 56.9255 29.0535 56.5176 28.5712C56.1098 28.0889 55.7177 27.494 55.3412 26.7867H55.1999C55.0275 26.7867 54.8784 26.8269 54.7529 26.9073C54.6274 26.9877 54.5647 27.1324 54.5647 27.3414C54.5647 27.6146 54.6588 27.9041 54.8471 28.2094C55.1921 28.7883 55.5608 29.2866 55.9529 29.7046C56.3608 30.1225 56.7686 30.4763 57.1765 30.7656C57.6 31.0389 58.0156 31.2479 58.4235 31.3926C58.8313 31.5373 59.2 31.6257 59.5294 31.6578L59.3411 36.2155C58.9333 36.4888 58.5019 36.738 58.0471 36.9631C57.6079 37.1881 57.1059 37.381 56.5412 37.5418C55.9765 37.6865 55.3333 37.7991 54.6117 37.8794C53.9059 37.9598 53.0902 38 52.1647 38C51.2863 38 50.3686 37.9115 49.4117 37.7348C48.4549 37.5579 47.5765 37.2685 46.7764 36.8666C45.9764 36.4486 45.3098 35.918 44.7764 35.275C44.2588 34.6319 44 33.8362 44 32.8877C44 32.3894 44.0235 31.7141 44.0706 30.8621C44.1177 29.9939 44.1804 29.0133 44.2588 27.9201C44.3529 26.8269 44.4549 25.6453 44.5647 24.3753C44.6745 23.1052 44.7921 21.8271 44.9176 20.541C45.0431 19.2389 45.1686 17.9528 45.2941 16.6827C45.4195 15.4128 45.545 14.2311 45.6705 13.1379C45.796 12.0447 45.9058 11.0721 46 10.2201C46.1097 9.36805 46.2039 8.70083 46.2823 8.21854C46.7372 7.80055 47.2549 7.44687 47.8353 7.1575C48.4156 6.86812 49.0196 6.64305 49.6471 6.48229C50.2902 6.30546 50.9333 6.18488 51.5765 6.12058C52.2196 6.0402 52.8392 6 53.4353 6C54.5019 6 55.5451 6.12057 56.5647 6.36173C57.6 6.60287 58.4549 6.91636 59.1294 7.30219L60.4235 11.7392L59.5999 15.2841C59.5686 15.4128 59.5451 15.5332 59.5294 15.6458C59.5137 15.7584 59.5059 15.8709 59.5059 15.9834C59.5059 16.53 59.8196 16.8193 60.447 16.8516L62.6824 7.32631C62.949 7.18161 63.2862 7.02889 63.6941 6.86812C64.1176 6.70736 64.5804 6.56268 65.0823 6.43407C65.6 6.30546 66.1568 6.20095 66.7529 6.12058C67.349 6.0402 67.9608 6 68.5882 6C69.7019 6 70.6745 6.09646 71.5058 6.28937C72.3529 6.46622 73.0588 6.76363 73.6235 7.18161C74.2039 7.58353 74.6588 8.11404 74.9882 8.77315C75.3176 9.43225 75.5372 10.2441 75.647 11.2087C75.7568 12.2216 75.8902 13.4434 76.0471 14.8741C76.2195 16.3049 76.3921 17.8242 76.5647 19.4318C76.7373 21.0234 76.9097 22.639 77.0823 24.2788C77.2549 25.9186 77.4039 27.4619 77.5294 28.9088C77.6705 30.3396 77.7803 31.6096 77.8587 32.7189C77.9529 33.8282 78 34.6481 78 35.1786C76.2588 37.0595 73.749 38 70.4706 38C69.4352 38 68.4862 37.9115 67.6235 37.7348C66.7608 37.5579 66.0157 37.2926 65.3882 36.9389C64.7765 36.5691 64.2823 36.1191 63.9059 35.5885C63.545 35.058 63.3333 34.431 63.2706 33.7076L63.0588 31.4409Z" fill="#4F463D"/>
</svg>
