<svg width="83" height="38" viewBox="0 0 83 38" fill="none" xmlns="http://www.w3.org/2000/svg">
<path d="M8.85726 22.2025C2.26161 11.5657 3.59641 6.93497 3.59641 6.93497C3.59641 6.93497 19.2089 7.40848 25.3446 10.6414C31.4802 13.8744 25.1355 22.382 25.1355 22.382C25.1355 22.382 15.4529 32.8393 8.85726 22.2025Z" fill="#B7D968"/>
<path d="M3.10038 7C3.10038 7 1.89126 12.5453 7.86588 25.2827C13.8404 38.0201 22.6113 25.4976 22.6113 25.4976M3.10038 7C3.10038 7 17.2428 7.56702 22.8007 11.4384C28.3586 15.3098 22.6113 25.4976 22.6113 25.4976M3.10038 7L9.97568 13.5183M22.6113 25.4976L28 30.6065M22.6113 25.4976L18.2349 21.3485M9.97568 13.5183L14.0636 17.394M9.97568 13.5183L6.03989 13.5389M18.2349 21.3485L11.3378 23.8248M18.2349 21.3485L14.0636 17.394M14.0636 17.394L13.6341 11.9514" stroke="#4F463D"/>
<path d="M31.8667 32.8441C31.2177 33.3944 30.2995 33.8914 29.1123 34.3348C27.9252 34.7783 26.4925 35 24.8146 35C23.9281 35 23.0734 34.9082 22.2502 34.7247C21.4271 34.5412 20.6989 34.2661 20.0657 33.8991C19.4325 33.5167 18.926 33.0352 18.5461 32.4541C18.1821 31.8731 18 31.1926 18 30.4128V7.1101C18 5.70337 21.5695 5 28.7087 5H42.6466C42.8524 5.35169 43.0423 5.75688 43.2165 6.2156C43.3906 6.67431 43.5331 7.14832 43.6439 7.63758C43.7547 8.11161 43.8418 8.59327 43.9051 9.08257C43.9684 9.5566 44 10 44 10.4129C44 12.1254 43.6201 13.4327 42.8603 14.3349C42.1005 15.2217 40.8895 15.6652 39.2274 15.6652H31.0119C30.6953 15.6652 30.4658 15.734 30.3233 15.8716C30.1808 16.0091 30.1096 16.185 30.1096 16.3991C30.1096 16.4296 30.1096 16.4908 30.1096 16.5826C30.1096 16.659 30.1254 16.7126 30.1571 16.7431H40.6521C40.9845 17.2935 41.2694 17.9663 41.5069 18.7614C41.7444 19.5565 41.8631 20.3823 41.8631 21.2385C41.8631 22.4618 41.7047 23.4785 41.3881 24.289C41.0874 25.0841 40.7629 25.688 40.4147 26.1009H28.7799C28.6533 26.2232 28.59 26.3609 28.59 26.5137C28.59 26.6513 28.6375 26.7584 28.7324 26.8348C28.8432 26.896 29.0174 26.9419 29.2548 26.9725C29.5081 27.003 29.8405 27.0183 30.252 27.0183C30.6795 27.0183 31.2177 27.0259 31.8667 27.0413V32.8441Z" fill="#578C3E"/>
<path d="M63.0588 28.4409C63.6078 28.3122 64.2039 28.047 64.847 27.645C65.4901 27.2431 66.1098 26.592 66.7059 25.6918C66.9725 25.2738 67.1058 24.9121 67.1058 24.6066C67.1058 24.1887 66.902 23.9796 66.4941 23.9796C66.4627 23.9796 66.4313 23.9877 66.4 24.0038C66.3843 24.0038 66.3607 24.0038 66.3294 24.0038C65.2157 26.3669 63.4353 27.5486 60.9883 27.5486C60.3765 27.5486 59.8039 27.4843 59.2705 27.3557C58.7529 27.2271 58.2666 27.0181 57.8117 26.7287C57.3569 26.4394 56.9255 26.0535 56.5176 25.5712C56.1098 25.0889 55.7177 24.494 55.3412 23.7867H55.1999C55.0275 23.7867 54.8784 23.8269 54.7529 23.9073C54.6274 23.9877 54.5647 24.1324 54.5647 24.3414C54.5647 24.6146 54.6588 24.9041 54.8471 25.2094C55.1921 25.7883 55.5608 26.2866 55.9529 26.7046C56.3608 27.1225 56.7686 27.4763 57.1765 27.7656C57.6 28.0389 58.0156 28.2479 58.4235 28.3926C58.8313 28.5373 59.2 28.6257 59.5294 28.6578L59.3411 33.2155C58.9333 33.4888 58.5019 33.738 58.0471 33.9631C57.6079 34.1881 57.1059 34.381 56.5412 34.5418C55.9765 34.6865 55.3333 34.7991 54.6117 34.8794C53.9059 34.9598 53.0902 35 52.1647 35C51.2863 35 50.3686 34.9115 49.4117 34.7348C48.4549 34.5579 47.5765 34.2685 46.7764 33.8666C45.9764 33.4486 45.3098 32.918 44.7764 32.275C44.2588 31.6319 44 30.8362 44 29.8877C44 29.3894 44.0235 28.7141 44.0706 27.8621C44.1177 26.9939 44.1804 26.0133 44.2588 24.9201C44.3529 23.8269 44.4549 22.6453 44.5647 21.3753C44.6745 20.1052 44.7921 18.8271 44.9176 17.541C45.0431 16.2389 45.1686 14.9528 45.2941 13.6827C45.4195 12.4128 45.545 11.2311 45.6705 10.1379C45.796 9.0447 45.9058 8.07209 46 7.22007C46.1097 6.36805 46.2039 5.70083 46.2823 5.21854C46.7372 4.80055 47.2549 4.44687 47.8353 4.1575C48.4156 3.86812 49.0196 3.64305 49.6471 3.48229C50.2902 3.30546 50.9333 3.18488 51.5765 3.12058C52.2196 3.0402 52.8392 3 53.4353 3C54.5019 3 55.5451 3.12057 56.5647 3.36173C57.6 3.60287 58.4549 3.91636 59.1294 4.30219L60.4235 8.73922L59.5999 12.2841C59.5686 12.4128 59.5451 12.5332 59.5294 12.6458C59.5137 12.7584 59.5059 12.8709 59.5059 12.9834C59.5059 13.53 59.8196 13.8193 60.447 13.8516L62.6824 4.32631C62.949 4.18161 63.2862 4.02889 63.6941 3.86812C64.1176 3.70736 64.5804 3.56268 65.0823 3.43407C65.6 3.30546 66.1568 3.20095 66.7529 3.12058C67.349 3.0402 67.9608 3 68.5882 3C69.7019 3 70.6745 3.09646 71.5058 3.28937C72.3529 3.46622 73.0588 3.76363 73.6235 4.18161C74.2039 4.58353 74.6588 5.11404 74.9882 5.77315C75.3176 6.43225 75.5372 7.24415 75.647 8.20873C75.7568 9.22156 75.8902 10.4434 76.0471 11.8741C76.2195 13.3049 76.3921 14.8242 76.5647 16.4318C76.7373 18.0234 76.9097 19.639 77.0823 21.2788C77.2549 22.9186 77.4039 24.4619 77.5294 25.9088C77.6705 27.3396 77.7803 28.6096 77.8587 29.7189C77.9529 30.8282 78 31.6481 78 32.1786C76.2588 34.0595 73.749 35 70.4706 35C69.4352 35 68.4862 34.9115 67.6235 34.7348C66.7608 34.5579 66.0157 34.2926 65.3882 33.9389C64.7765 33.5691 64.2823 33.1191 63.9059 32.5885C63.545 32.058 63.3333 31.431 63.2706 30.7076L63.0588 28.4409Z" fill="#4F463D"/>
</svg>
